<svg width="28" height="29" viewBox="0 0 28 29" fill="none" xmlns="http://www.w3.org/2000/svg">
<path d="M13.125 24.125C13.125 24.3571 13.0328 24.5796 12.8687 24.7437C12.7046 24.9078 12.4821 25 12.25 25H5.25C5.01794 25 4.79538 24.9078 4.63128 24.7437C4.46719 24.5796 4.375 24.3571 4.375 24.125V4.875C4.375 4.64294 4.46719 4.42038 4.63128 4.25628C4.79538 4.09219 5.01794 4 5.25 4H12.25C12.4821 4 12.7046 4.09219 12.8687 4.25628C13.0328 4.42038 13.125 4.64294 13.125 4.875C13.125 5.10706 13.0328 5.32962 12.8687 5.49372C12.7046 5.65781 12.4821 5.75 12.25 5.75H6.125V23.25H12.25C12.4821 23.25 12.7046 23.3422 12.8687 23.5063C13.0328 23.6704 13.125 23.8929 13.125 24.125ZM25.1191 13.8809L20.7441 9.50594C20.5799 9.34175 20.3572 9.24951 20.125 9.24951C19.8928 9.24951 19.6701 9.34175 19.5059 9.50594C19.3418 9.67012 19.2495 9.89281 19.2495 10.125C19.2495 10.3572 19.3418 10.5799 19.5059 10.7441L22.388 13.625H12.25C12.0179 13.625 11.7954 13.7172 11.6313 13.8813C11.4672 14.0454 11.375 14.2679 11.375 14.5C11.375 14.7321 11.4672 14.9546 11.6313 15.1187C11.7954 15.2828 12.0179 15.375 12.25 15.375H22.388L19.5059 18.2559C19.3418 18.4201 19.2495 18.6428 19.2495 18.875C19.2495 19.1072 19.3418 19.3299 19.5059 19.4941C19.6701 19.6582 19.8928 19.7505 20.125 19.7505C20.3572 19.7505 20.5799 19.6582 20.7441 19.4941L25.1191 15.1191C25.2004 15.0378 25.265 14.9413 25.309 14.8351C25.353 14.7288 25.3757 14.615 25.3757 14.5C25.3757 14.385 25.353 14.2712 25.309 14.1649C25.265 14.0587 25.2004 13.9622 25.1191 13.8809Z" fill="white"/>
</svg>
