<svg width="46" height="46" viewBox="0 0 46 46" fill="white" xmlns="http://www.w3.org/2000/svg">
<path d="M32.375 21C32.375 22.9036 31.8105 24.7645 30.7529 26.3474C29.6953 27.9302 28.1921 29.1638 26.4333 29.8923C24.6746 30.6208 22.7393 30.8114 20.8723 30.4401C19.0052 30.0687 17.2902 29.152 15.9441 27.8059C14.598 26.4598 13.6813 24.7448 13.31 22.8777C12.9386 21.0107 13.1292 19.0754 13.8577 17.3167C14.5862 15.5579 15.8198 14.0547 17.4026 12.9971C18.9855 11.9395 20.8464 11.375 22.75 11.375C25.3018 11.3779 27.7483 12.3929 29.5527 14.1973C31.3571 16.0017 32.3721 18.4482 32.375 21ZM45.5 22.75C45.5 27.2495 44.1657 31.648 41.6659 35.3892C39.1661 39.1304 35.6131 42.0464 31.4561 43.7683C27.299 45.4902 22.7248 45.9407 18.3117 45.0629C13.8986 44.185 9.84497 42.0183 6.66333 38.8367C3.48169 35.655 1.31496 31.6014 0.437145 27.1883C-0.440669 22.7752 0.00985722 18.201 1.73175 14.044C3.45364 9.88693 6.36957 6.33387 10.1108 3.83407C13.852 1.33426 18.2505 0 22.75 0C28.7817 0.0063696 34.5646 2.40528 38.8297 6.67035C43.0947 10.9354 45.4936 16.7183 45.5 22.75ZM42 22.75C41.9972 20.159 41.4719 17.5951 40.4555 15.2118C39.4391 12.8284 37.9525 10.6745 36.0846 8.87892C34.2167 7.08329 32.0058 5.68281 29.5842 4.76123C27.1626 3.83965 24.5801 3.41589 21.9909 3.51531C11.6878 3.91344 3.47157 12.495 3.50001 22.8047C3.50989 27.498 5.24087 32.0247 8.36501 35.5272C9.63731 33.6818 11.2535 32.0991 13.125 30.8656C13.2846 30.7602 13.4743 30.71 13.6651 30.7227C13.8559 30.7353 14.0373 30.8101 14.1816 30.9356C16.5598 32.9926 19.5991 34.1247 22.7434 34.1247C25.8878 34.1247 28.9271 32.9926 31.3053 30.9356C31.4496 30.8101 31.631 30.7353 31.8218 30.7227C32.0126 30.71 32.2023 30.7602 32.3619 30.8656C34.2358 32.0984 35.8542 33.6812 37.1284 35.5272C40.268 32.0119 42.0023 27.4632 42 22.75Z" fill="#F75555"/>
</svg>
