<svg width="28" height="29" viewBox="0 0 28 29" fill="white" xmlns="http://www.w3.org/2000/svg">
<path d="M2.975 14.3251C3.06693 14.3941 3.17153 14.4442 3.28284 14.4727C3.39415 14.5013 3.50999 14.5076 3.62374 14.4913C3.7375 14.4751 3.84693 14.4366 3.94581 14.378C4.04468 14.3195 4.13106 14.242 4.2 14.1501C4.72977 13.4438 5.41673 12.8704 6.20647 12.4756C6.99621 12.0807 7.86704 11.8751 8.75 11.8751C9.63296 11.8751 10.5038 12.0807 11.2935 12.4756C12.0833 12.8704 12.7702 13.4438 13.3 14.1501C13.4394 14.3356 13.6468 14.4581 13.8765 14.4907C14.1062 14.5233 14.3395 14.4634 14.525 14.324C14.5911 14.2748 14.6497 14.2163 14.6989 14.1501C15.2287 13.4438 15.9156 12.8704 16.7054 12.4756C17.4951 12.0807 18.366 11.8751 19.2489 11.8751C20.1319 11.8751 21.0027 12.0807 21.7924 12.4756C22.5822 12.8704 23.2691 13.4438 23.7989 14.1501C23.9383 14.3358 24.1457 14.4585 24.3755 14.4912C24.6054 14.5239 24.8388 14.464 25.0245 14.3246C25.2101 14.1852 25.3328 13.9778 25.3655 13.7479C25.3982 13.5181 25.3383 13.2847 25.1989 13.099C24.4244 12.0607 23.3916 11.2432 22.2031 10.7278C22.8547 10.1329 23.3111 9.355 23.5126 8.49609C23.7141 7.63717 23.6513 6.7374 23.3323 5.91486C23.0132 5.09232 22.453 4.38545 21.7251 3.887C20.9971 3.38855 20.1355 3.12183 19.2533 3.12183C18.371 3.12183 17.5094 3.38855 16.7815 3.887C16.0536 4.38545 15.4933 5.09232 15.1743 5.91486C14.8553 6.7374 14.7924 7.63717 14.9939 8.49609C15.1954 9.355 15.6519 10.1329 16.3034 10.7278C15.4453 11.0988 14.6658 11.63 14.0066 12.2929C13.3473 11.63 12.5678 11.0988 11.7097 10.7278C12.3612 10.1329 12.8177 9.355 13.0192 8.49609C13.2207 7.63717 13.1578 6.7374 12.8388 5.91486C12.5198 5.09232 11.9596 4.38545 11.2316 3.887C10.5037 3.38855 9.64208 3.12183 8.75984 3.12183C7.87761 3.12183 7.01598 3.38855 6.28805 3.887C5.56011 4.38545 4.99988 5.09232 4.68087 5.91486C4.36186 6.7374 4.29898 7.63717 4.50049 8.49609C4.70199 9.355 5.15847 10.1329 5.81 10.7278C4.61634 11.2415 3.57842 12.0595 2.8 13.1001C2.73106 13.192 2.68089 13.2967 2.65238 13.408C2.62386 13.5193 2.61754 13.6351 2.63379 13.7489C2.65004 13.8626 2.68854 13.9721 2.74708 14.0709C2.80563 14.1698 2.88307 14.2562 2.975 14.3251ZM19.25 4.87512C19.7692 4.87512 20.2767 5.02908 20.7084 5.31751C21.1401 5.60595 21.4765 6.01592 21.6752 6.49558C21.8739 6.97523 21.9258 7.50303 21.8246 8.01223C21.7233 8.52143 21.4733 8.98916 21.1062 9.35628C20.739 9.72339 20.2713 9.9734 19.7621 10.0747C19.2529 10.176 18.7251 10.124 18.2455 9.92531C17.7658 9.72663 17.3558 9.39017 17.0674 8.95849C16.779 8.52681 16.625 8.0193 16.625 7.50012C16.625 6.80393 16.9016 6.13625 17.3938 5.64397C17.8861 5.15168 18.5538 4.87512 19.25 4.87512ZM8.75 4.87512C9.26918 4.87512 9.77669 5.02908 10.2084 5.31751C10.6401 5.60595 10.9765 6.01592 11.1752 6.49558C11.3739 6.97523 11.4258 7.50303 11.3246 8.01223C11.2233 8.52143 10.9733 8.98916 10.6062 9.35628C10.239 9.72339 9.77131 9.9734 9.26211 10.0747C8.75291 10.176 8.22511 10.124 7.74546 9.92531C7.2658 9.72663 6.85583 9.39017 6.56739 8.95849C6.27895 8.52681 6.125 8.0193 6.125 7.50012C6.125 6.80393 6.40156 6.13625 6.89384 5.64397C7.38613 5.15168 8.05381 4.87512 8.75 4.87512ZM22.2031 22.1028C22.8547 21.5079 23.3111 20.73 23.5126 19.8711C23.7141 19.0122 23.6513 18.1124 23.3323 17.2899C23.0132 16.4673 22.453 15.7604 21.7251 15.262C20.9971 14.7636 20.1355 14.4968 19.2533 14.4968C18.371 14.4968 17.5094 14.7636 16.7815 15.262C16.0536 15.7604 15.4933 16.4673 15.1743 17.2899C14.8553 18.1124 14.7924 19.0122 14.9939 19.8711C15.1954 20.73 15.6519 21.5079 16.3034 22.1028C15.4453 22.4738 14.6658 23.005 14.0066 23.6679C13.3473 23.005 12.5678 22.4738 11.7097 22.1028C12.3612 21.5079 12.8177 20.73 13.0192 19.8711C13.2207 19.0122 13.1578 18.1124 12.8388 17.2899C12.5198 16.4673 11.9596 15.7604 11.2316 15.262C10.5037 14.7636 9.64208 14.4968 8.75984 14.4968C7.87761 14.4968 7.01598 14.7636 6.28805 15.262C5.56011 15.7604 4.99988 16.4673 4.68087 17.2899C4.36186 18.1124 4.29898 19.0122 4.50049 19.8711C4.70199 20.73 5.15847 21.5079 5.81 22.1028C4.61634 22.6165 3.57842 23.4345 2.8 24.4751C2.73106 24.567 2.68089 24.6717 2.65238 24.783C2.62386 24.8943 2.61754 25.0101 2.63379 25.1239C2.65004 25.2376 2.68854 25.3471 2.74708 25.4459C2.80563 25.5448 2.88307 25.6312 2.975 25.7001C3.06693 25.7691 3.17153 25.8192 3.28284 25.8477C3.39415 25.8763 3.50999 25.8826 3.62374 25.8663C3.7375 25.8501 3.84693 25.8116 3.94581 25.753C4.04468 25.6945 4.13106 25.617 4.2 25.5251C4.72977 24.8188 5.41673 24.2454 6.20647 23.8506C6.99621 23.4557 7.86704 23.2501 8.75 23.2501C9.63296 23.2501 10.5038 23.4557 11.2935 23.8506C12.0833 24.2454 12.7702 24.8188 13.3 25.5251C13.4394 25.7106 13.6468 25.8331 13.8765 25.8657C14.1062 25.8983 14.3395 25.8384 14.525 25.699C14.5911 25.6498 14.6497 25.5913 14.6989 25.5251C15.2287 24.8188 15.9156 24.2454 16.7054 23.8506C17.4951 23.4557 18.366 23.2501 19.2489 23.2501C20.1319 23.2501 21.0027 23.4557 21.7924 23.8506C22.5822 24.2454 23.2691 24.8188 23.7989 25.5251C23.9383 25.7108 24.1457 25.8335 24.3755 25.8662C24.6054 25.8989 24.8388 25.839 25.0245 25.6996C25.2101 25.5602 25.3328 25.3528 25.3655 25.1229C25.3982 24.8931 25.3383 24.6597 25.1989 24.474C24.4244 23.4357 23.3916 22.6182 22.2031 22.1028ZM8.75 16.2501C9.26918 16.2501 9.77669 16.4041 10.2084 16.6925C10.6401 16.981 10.9765 17.3909 11.1752 17.8706C11.3739 18.3502 11.4258 18.878 11.3246 19.3872C11.2233 19.8964 10.9733 20.3642 10.6062 20.7313C10.239 21.0984 9.77131 21.3484 9.26211 21.4497C8.75291 21.551 8.22511 21.499 7.74546 21.3003C7.2658 21.1016 6.85583 20.7652 6.56739 20.3335C6.27895 19.9018 6.125 19.3943 6.125 18.8751C6.125 18.1789 6.40156 17.5112 6.89384 17.019C7.38613 16.5267 8.05381 16.2501 8.75 16.2501ZM19.25 16.2501C19.7692 16.2501 20.2767 16.4041 20.7084 16.6925C21.1401 16.981 21.4765 17.3909 21.6752 17.8706C21.8739 18.3502 21.9258 18.878 21.8246 19.3872C21.7233 19.8964 21.4733 20.3642 21.1062 20.7313C20.739 21.0984 20.2713 21.3484 19.7621 21.4497C19.2529 21.551 18.7251 21.499 18.2455 21.3003C17.7658 21.1016 17.3558 20.7652 17.0674 20.3335C16.779 19.9018 16.625 19.3943 16.625 18.8751C16.625 18.1789 16.9016 17.5112 17.3938 17.019C17.8861 16.5267 18.5538 16.2501 19.25 16.2501Z" fill="#F75555"/>
</svg>
